# xmcd
#
# Track frame offsets:
#	150
#	11341
#	24956
#	56888
#	81753
#	93771
#	114437
#	138745
#	156321
#	174861
#	209081
#	228098
#	240781
#	258258
#	267551
#	286196
#	304849
#	325468
#
# Disc length: 4441
#
# Revision: 2
# Processed by: cddbd v1.5.1PL0 Copyright (c) Steve Scherf et al.
# Submitted via: CDex 1.50beta10
# Normalized: r0:TDELIM( - ),TSWAP
#
DISCID=ec115712
DTITLE=Various Artist - Diggin' Deeper - The roots of acid jazz
DYEAR=1900
DGENRE=Jazz
TTITLE0=Winchester Cathedral - Winchester Cathedral
TTITLE1=Sly and the familie Stone - If you want me to stay
TTITLE2=Eric Gale - Loockin' good
TTITLE3=Freddie Hubbard - Midnight at the oasis
TTITLE4=George Benson - Return of the prodigal son
TTITLE5=Tom Scott - Sneakin' in the back
TTITLE6=Ramsey Lewis - Living for the city
TTITLE7=Jaco Pastorius - Com on come over
TTITLE8=George benson - I remember wes
TTITLE9=Stamley Turentine - Storm
TTITLE10=George Duke - Sigar loaf mountain
TTITLE11=Isley Brothers - Take Inventary
TTITLE12=Bill Withers - Kissing my love
TTITLE13=Big City - Big city
TTITLE14=Asha Puthli - Right down here
TTITLE15=Ester Phillips - Use me
TTITLE16=Mc Coy Tyner - Searchin'
TTITLE17=Patti Austin - Little baby
EXTD=
EXTT0=
EXTT1=
EXTT2=
EXTT3=
EXTT4=
EXTT5=
EXTT6=
EXTT7=
EXTT8=
EXTT9=
EXTT10=
EXTT11=
EXTT12=
EXTT13=
EXTT14=
EXTT15=
EXTT16=
EXTT17=
PLAYORDER=
